<mxfile host="app.diagrams.net" agent="Mozilla/5.0 (Windows NT 10.0; Win64; x64) AppleWebKit/537.36 (KHTML, like Gecko) Chrome/137.0.0.0 Safari/537.36" version="27.2.0">
  <diagram name="Page-1" id="JrS7OMd1us_e09A3AtEi">
    <mxGraphModel dx="1025" dy="1586" grid="1" gridSize="10" guides="1" tooltips="1" connect="1" arrows="1" fold="1" page="1" pageScale="1" pageWidth="827" pageHeight="1169" math="0" shadow="0">
      <root>
        <mxCell id="0" />
        <mxCell id="1" parent="0" />
        <mxCell id="SaUjJQl1MqZwvCkhwEu3-2" value="AWS Cloud" style="sketch=0;outlineConnect=0;gradientColor=none;html=1;whiteSpace=wrap;fontSize=12;fontStyle=0;shape=mxgraph.aws4.group;grIcon=mxgraph.aws4.group_aws_cloud;strokeColor=#AAB7B8;fillColor=none;verticalAlign=top;align=left;spacingLeft=30;fontColor=#AAB7B8;dashed=0;" vertex="1" parent="1">
          <mxGeometry x="10" y="-100" width="700" height="560" as="geometry" />
        </mxCell>
        <mxCell id="SaUjJQl1MqZwvCkhwEu3-3" value="VPC" style="sketch=0;outlineConnect=0;gradientColor=none;html=1;whiteSpace=wrap;fontSize=12;fontStyle=0;shape=mxgraph.aws4.group;grIcon=mxgraph.aws4.group_vpc;strokeColor=#B6BABF;fillColor=none;verticalAlign=top;align=left;spacingLeft=30;fontColor=#B6BABF;dashed=0;" vertex="1" parent="1">
          <mxGeometry x="30" y="-40" width="630" height="465" as="geometry" />
        </mxCell>
        <mxCell id="SaUjJQl1MqZwvCkhwEu3-30" value="Region" style="points=[[0,0],[0.25,0],[0.5,0],[0.75,0],[1,0],[1,0.25],[1,0.5],[1,0.75],[1,1],[0.75,1],[0.5,1],[0.25,1],[0,1],[0,0.75],[0,0.5],[0,0.25]];outlineConnect=0;gradientColor=none;html=1;whiteSpace=wrap;fontSize=12;fontStyle=0;container=1;pointerEvents=0;collapsible=0;recursiveResize=0;shape=mxgraph.aws4.group;grIcon=mxgraph.aws4.group_region;strokeColor=#00A4A6;fillColor=none;verticalAlign=top;align=left;spacingLeft=30;fontColor=#147EBA;dashed=1;" vertex="1" parent="1">
          <mxGeometry x="20" y="-70" width="680" height="510" as="geometry" />
        </mxCell>
        <mxCell id="SaUjJQl1MqZwvCkhwEu3-31" value="Internet&#xa;gateway" style="sketch=0;outlineConnect=0;fontColor=#232F3E;gradientColor=none;strokeColor=#232F3E;fillColor=#ffffff;dashed=0;verticalLabelPosition=bottom;verticalAlign=top;align=center;html=1;fontSize=12;fontStyle=0;aspect=fixed;shape=mxgraph.aws4.resourceIcon;resIcon=mxgraph.aws4.internet_gateway;" vertex="1" parent="SaUjJQl1MqZwvCkhwEu3-30">
          <mxGeometry x="320" width="30" height="30" as="geometry" />
        </mxCell>
        <mxCell id="SaUjJQl1MqZwvCkhwEu3-47" value="Public subnet" style="points=[[0,0],[0.25,0],[0.5,0],[0.75,0],[1,0],[1,0.25],[1,0.5],[1,0.75],[1,1],[0.75,1],[0.5,1],[0.25,1],[0,1],[0,0.75],[0,0.5],[0,0.25]];outlineConnect=0;gradientColor=none;html=1;whiteSpace=wrap;fontSize=12;fontStyle=0;container=1;pointerEvents=0;collapsible=0;recursiveResize=0;shape=mxgraph.aws4.group;grIcon=mxgraph.aws4.group_security_group;grStroke=0;strokeColor=#7AA116;fillColor=#F2F6E8;verticalAlign=top;align=left;spacingLeft=30;fontColor=#248814;dashed=0;" vertex="1" parent="SaUjJQl1MqZwvCkhwEu3-30">
          <mxGeometry x="110" y="180" width="80" height="90" as="geometry" />
        </mxCell>
        <mxCell id="SaUjJQl1MqZwvCkhwEu3-48" value="Public subnet" style="points=[[0,0],[0.25,0],[0.5,0],[0.75,0],[1,0],[1,0.25],[1,0.5],[1,0.75],[1,1],[0.75,1],[0.5,1],[0.25,1],[0,1],[0,0.75],[0,0.5],[0,0.25]];outlineConnect=0;gradientColor=none;html=1;whiteSpace=wrap;fontSize=12;fontStyle=0;container=1;pointerEvents=0;collapsible=0;recursiveResize=0;shape=mxgraph.aws4.group;grIcon=mxgraph.aws4.group_security_group;grStroke=0;strokeColor=#7AA116;fillColor=#F2F6E8;verticalAlign=top;align=left;spacingLeft=30;fontColor=#248814;dashed=0;" vertex="1" parent="SaUjJQl1MqZwvCkhwEu3-30">
          <mxGeometry x="280" y="180" width="90" height="100" as="geometry" />
        </mxCell>
        <mxCell id="SaUjJQl1MqZwvCkhwEu3-53" value="" style="sketch=0;points=[[0,0,0],[0.25,0,0],[0.5,0,0],[0.75,0,0],[1,0,0],[0,1,0],[0.25,1,0],[0.5,1,0],[0.75,1,0],[1,1,0],[0,0.25,0],[0,0.5,0],[0,0.75,0],[1,0.25,0],[1,0.5,0],[1,0.75,0]];outlineConnect=0;fontColor=#232F3E;fillColor=#ED7100;strokeColor=#ffffff;dashed=0;verticalLabelPosition=bottom;verticalAlign=top;align=center;html=1;fontSize=12;fontStyle=0;aspect=fixed;shape=mxgraph.aws4.resourceIcon;resIcon=mxgraph.aws4.ec2;" vertex="1" parent="SaUjJQl1MqZwvCkhwEu3-48">
          <mxGeometry x="6" y="40" width="49" height="49" as="geometry" />
        </mxCell>
        <mxCell id="SaUjJQl1MqZwvCkhwEu3-49" value="Public subnet" style="points=[[0,0],[0.25,0],[0.5,0],[0.75,0],[1,0],[1,0.25],[1,0.5],[1,0.75],[1,1],[0.75,1],[0.5,1],[0.25,1],[0,1],[0,0.75],[0,0.5],[0,0.25]];outlineConnect=0;gradientColor=none;html=1;whiteSpace=wrap;fontSize=12;fontStyle=0;container=1;pointerEvents=0;collapsible=0;recursiveResize=0;shape=mxgraph.aws4.group;grIcon=mxgraph.aws4.group_security_group;grStroke=0;strokeColor=#7AA116;fillColor=#F2F6E8;verticalAlign=top;align=left;spacingLeft=30;fontColor=#248814;dashed=0;" vertex="1" parent="SaUjJQl1MqZwvCkhwEu3-30">
          <mxGeometry x="440" y="180" width="110" height="90" as="geometry" />
        </mxCell>
        <mxCell id="SaUjJQl1MqZwvCkhwEu3-54" value="" style="sketch=0;points=[[0,0,0],[0.25,0,0],[0.5,0,0],[0.75,0,0],[1,0,0],[0,1,0],[0.25,1,0],[0.5,1,0],[0.75,1,0],[1,1,0],[0,0.25,0],[0,0.5,0],[0,0.75,0],[1,0.25,0],[1,0.5,0],[1,0.75,0]];outlineConnect=0;fontColor=#232F3E;fillColor=#ED7100;strokeColor=#ffffff;dashed=0;verticalLabelPosition=bottom;verticalAlign=top;align=center;html=1;fontSize=12;fontStyle=0;aspect=fixed;shape=mxgraph.aws4.resourceIcon;resIcon=mxgraph.aws4.ec2;" vertex="1" parent="SaUjJQl1MqZwvCkhwEu3-49">
          <mxGeometry x="20" y="31" width="58" height="58" as="geometry" />
        </mxCell>
        <mxCell id="SaUjJQl1MqZwvCkhwEu3-51" value="" style="sketch=0;points=[[0,0,0],[0.25,0,0],[0.5,0,0],[0.75,0,0],[1,0,0],[0,1,0],[0.25,1,0],[0.5,1,0],[0.75,1,0],[1,1,0],[0,0.25,0],[0,0.5,0],[0,0.75,0],[1,0.25,0],[1,0.5,0],[1,0.75,0]];outlineConnect=0;fontColor=#232F3E;fillColor=#ED7100;strokeColor=#ffffff;dashed=0;verticalLabelPosition=bottom;verticalAlign=top;align=center;html=1;fontSize=12;fontStyle=0;aspect=fixed;shape=mxgraph.aws4.resourceIcon;resIcon=mxgraph.aws4.ec2;" vertex="1" parent="SaUjJQl1MqZwvCkhwEu3-30">
          <mxGeometry x="110" y="220" width="49" height="49" as="geometry" />
        </mxCell>
        <mxCell id="SaUjJQl1MqZwvCkhwEu3-14" value="Availability zone" style="sketch=0;outlineConnect=0;gradientColor=none;html=1;whiteSpace=wrap;fontSize=12;fontStyle=0;shape=mxgraph.aws4.group;grIcon=mxgraph.aws4.group_availability_zone;strokeColor=#545B64;fillColor=none;verticalAlign=top;align=left;spacingLeft=30;fontColor=#545B64;dashed=1;" vertex="1" parent="SaUjJQl1MqZwvCkhwEu3-30">
          <mxGeometry x="40" y="160" width="550" height="220" as="geometry" />
        </mxCell>
        <mxCell id="SaUjJQl1MqZwvCkhwEu3-55" value="" style="outlineConnect=0;dashed=0;verticalLabelPosition=bottom;verticalAlign=top;align=center;html=1;shape=mxgraph.aws3.application_load_balancer;fillColor=#F58536;gradientColor=none;" vertex="1" parent="SaUjJQl1MqZwvCkhwEu3-30">
          <mxGeometry x="301" y="70" width="69" height="72" as="geometry" />
        </mxCell>
        <mxCell id="SaUjJQl1MqZwvCkhwEu3-63" value="" style="endArrow=classic;html=1;rounded=0;" edge="1" parent="SaUjJQl1MqZwvCkhwEu3-30">
          <mxGeometry width="50" height="50" relative="1" as="geometry">
            <mxPoint x="300" y="110" as="sourcePoint" />
            <mxPoint x="150" y="180" as="targetPoint" />
            <Array as="points">
              <mxPoint x="150" y="110" />
              <mxPoint x="150" y="180" />
            </Array>
          </mxGeometry>
        </mxCell>
        <mxCell id="SaUjJQl1MqZwvCkhwEu3-65" value="" style="endArrow=classic;html=1;rounded=0;exitX=1;exitY=0.5;exitDx=0;exitDy=0;exitPerimeter=0;" edge="1" parent="SaUjJQl1MqZwvCkhwEu3-30" source="SaUjJQl1MqZwvCkhwEu3-55">
          <mxGeometry width="50" height="50" relative="1" as="geometry">
            <mxPoint x="394" y="50" as="sourcePoint" />
            <mxPoint x="500" y="176" as="targetPoint" />
            <Array as="points">
              <mxPoint x="370" y="116" />
              <mxPoint x="490" y="116" />
              <mxPoint x="490" y="150" />
              <mxPoint x="490" y="170" />
              <mxPoint x="500" y="176" />
            </Array>
          </mxGeometry>
        </mxCell>
        <mxCell id="SaUjJQl1MqZwvCkhwEu3-69" value="/default" style="text;html=1;align=center;verticalAlign=middle;whiteSpace=wrap;rounded=0;" vertex="1" parent="SaUjJQl1MqZwvCkhwEu3-30">
          <mxGeometry x="350" y="142" width="60" height="30" as="geometry" />
        </mxCell>
        <mxCell id="SaUjJQl1MqZwvCkhwEu3-70" value="/register" style="text;html=1;align=center;verticalAlign=middle;whiteSpace=wrap;rounded=0;" vertex="1" parent="SaUjJQl1MqZwvCkhwEu3-30">
          <mxGeometry x="520" y="130" width="60" height="30" as="geometry" />
        </mxCell>
        <mxCell id="SaUjJQl1MqZwvCkhwEu3-71" value="Target Group B" style="text;html=1;align=center;verticalAlign=middle;whiteSpace=wrap;rounded=0;" vertex="1" parent="SaUjJQl1MqZwvCkhwEu3-30">
          <mxGeometry x="110" y="300" width="60" height="30" as="geometry" />
        </mxCell>
        <mxCell id="SaUjJQl1MqZwvCkhwEu3-72" value="Target Group A" style="text;html=1;align=center;verticalAlign=middle;whiteSpace=wrap;rounded=0;" vertex="1" parent="SaUjJQl1MqZwvCkhwEu3-30">
          <mxGeometry x="301" y="300" width="60" height="30" as="geometry" />
        </mxCell>
        <mxCell id="SaUjJQl1MqZwvCkhwEu3-73" value="Target Group C" style="text;html=1;align=center;verticalAlign=middle;whiteSpace=wrap;rounded=0;" vertex="1" parent="SaUjJQl1MqZwvCkhwEu3-30">
          <mxGeometry x="480" y="310" width="60" height="30" as="geometry" />
        </mxCell>
        <mxCell id="SaUjJQl1MqZwvCkhwEu3-75" value="" style="endArrow=classic;html=1;rounded=0;" edge="1" parent="SaUjJQl1MqZwvCkhwEu3-30">
          <mxGeometry width="50" height="50" relative="1" as="geometry">
            <mxPoint x="330" y="130" as="sourcePoint" />
            <mxPoint x="330" y="190" as="targetPoint" />
            <Array as="points">
              <mxPoint x="330" y="140" />
            </Array>
          </mxGeometry>
        </mxCell>
        <mxCell id="SaUjJQl1MqZwvCkhwEu3-56" value="" style="outlineConnect=0;dashed=0;verticalLabelPosition=bottom;verticalAlign=top;align=center;html=1;shape=mxgraph.aws3.internet_2;fillColor=#D2D3D3;gradientColor=none;" vertex="1" parent="1">
          <mxGeometry x="310" y="-190" width="79.5" height="54" as="geometry" />
        </mxCell>
        <mxCell id="SaUjJQl1MqZwvCkhwEu3-67" value="" style="endArrow=classic;html=1;rounded=0;" edge="1" parent="1" target="SaUjJQl1MqZwvCkhwEu3-30">
          <mxGeometry width="50" height="50" relative="1" as="geometry">
            <mxPoint x="350" y="-140" as="sourcePoint" />
            <mxPoint x="440" y="-150" as="targetPoint" />
            <Array as="points">
              <mxPoint x="360" y="-140" />
            </Array>
          </mxGeometry>
        </mxCell>
        <mxCell id="SaUjJQl1MqZwvCkhwEu3-68" value="/image" style="text;strokeColor=none;align=center;fillColor=none;html=1;verticalAlign=middle;whiteSpace=wrap;rounded=0;" vertex="1" parent="1">
          <mxGeometry x="100" y="50" width="60" height="30" as="geometry" />
        </mxCell>
      </root>
    </mxGraphModel>
  </diagram>
</mxfile>
